<?xml version="1.0" standalone="no"?>
<!DOCTYPE svg PUBLIC "-//W3C//DTD SVG 20010904//EN"
 "http://www.w3.org/TR/2001/REC-SVG-20010904/DTD/svg10.dtd">
<svg version="1.0" xmlns="http://www.w3.org/2000/svg"
 width="512.000000pt" height="512.000000pt" viewBox="0 0 512.000000 512.000000"
 preserveAspectRatio="xMidYMid meet">
<metadata>
Created by potrace 1.16, written by Peter Selinger 2001-2019
</metadata>
<g transform="translate(0.000000,512.000000) scale(0.100000,-0.100000)"
fill="#000000" stroke="none">
<path d="M2431 4944 c-55 -20 -66 -26 -226 -144 -214 -158 -233 -165 -469
-180 -89 -5 -185 -12 -213 -16 -103 -11 -222 -93 -280 -191 -14 -25 -44 -123
-73 -239 -70 -281 -67 -276 -311 -510 -128 -123 -161 -175 -180 -282 -18 -101
-2 -161 100 -372 49 -102 94 -203 100 -225 16 -58 13 -128 -10 -320 -23 -198
-18 -262 33 -357 54 -101 109 -142 313 -228 241 -102 267 -124 415 -345 59
-88 126 -177 150 -199 69 -62 140 -89 245 -94 85 -3 99 -1 260 49 259 79 291
79 575 -8 134 -41 152 -44 235 -41 105 5 176 32 245 94 24 22 91 111 150 199
148 221 174 243 415 345 204 86 259 127 313 228 51 95 57 160 33 354 -23 187
-26 264 -10 323 6 22 51 123 100 225 102 211 118 271 100 372 -19 107 -52 159
-180 282 -244 234 -241 229 -311 510 -29 116 -59 214 -73 239 -58 98 -177 180
-280 191 -28 4 -124 11 -213 16 -237 15 -255 22 -474 183 -188 139 -212 150
-335 154 -73 2 -112 -1 -144 -13z m246 -645 c414 -46 771 -290 955 -654 87
-171 130 -347 130 -535 0 -142 -15 -247 -54 -370 -149 -467 -569 -803 -1049
-838 -366 -27 -698 96 -956 356 -315 316 -428 796 -286 1219 161 482 610 814
1126 832 21 0 81 -4 134 -10z"/>
<path d="M2195 3791 l-340 -147 0 -349 c1 -388 4 -418 70 -561 69 -150 186
-282 325 -365 88 -52 249 -109 310 -109 61 0 222 57 310 109 139 83 256 215
325 365 66 143 69 173 70 561 l0 349 -345 148 c-189 81 -354 148 -365 147 -11
0 -173 -67 -360 -148z m744 -397 c13 -9 29 -32 37 -50 12 -29 12 -39 0 -66 -8
-18 -117 -135 -243 -260 -244 -243 -249 -247 -311 -214 -40 22 -269 257 -281
289 -22 58 31 127 98 127 30 0 46 -12 130 -95 l96 -94 191 189 c174 173 193
190 225 190 19 0 45 -7 58 -16z"/>
<path d="M3845 1690 c-104 -52 -151 -100 -243 -249 -151 -244 -306 -351 -509
-351 -40 0 -63 -4 -63 -11 0 -17 304 -719 311 -719 3 0 84 126 179 279 95 154
177 278 184 276 33 -12 609 -126 620 -123 9 2 -49 147 -188 470 -110 258 -203
468 -206 468 -3 0 -41 -18 -85 -40z"/>
<path d="M1256 1638 c-13 -29 -126 -271 -250 -537 -124 -267 -224 -486 -223
-488 2 -1 149 23 327 54 178 31 326 52 328 47 12 -30 320 -548 328 -551 10 -3
448 936 440 944 -2 2 -21 0 -43 -6 -55 -16 -190 -13 -258 4 -152 40 -255 126
-368 309 -88 142 -155 220 -216 254 l-41 24 -24 -54z"/>
</g>
</svg>
