<?xml version="1.0" standalone="no"?>
<!DOCTYPE svg PUBLIC "-//W3C//DTD SVG 20010904//EN"
 "http://www.w3.org/TR/2001/REC-SVG-20010904/DTD/svg10.dtd">
<svg version="1.0" xmlns="http://www.w3.org/2000/svg"
 width="512.000000pt" height="512.000000pt" viewBox="0 0 512.000000 512.000000"
 preserveAspectRatio="xMidYMid meet">
<metadata>
Created by potrace 1.16, written by Peter Selinger 2001-2019
</metadata>
<g transform="translate(0.000000,512.000000) scale(0.100000,-0.100000)"
fill="#000000" stroke="none">
<path d="M1244 5106 c-98 -43 -154 -141 -154 -271 l0 -73 -227 -4 c-226 -3
-228 -3 -285 -31 -109 -54 -183 -149 -208 -270 -13 -65 -9 -118 22 -252 111
-487 433 -933 862 -1196 l84 -51 75 -153 c42 -84 113 -208 159 -276 146 -219
377 -431 566 -518 l52 -24 0 -51 c-1 -124 -55 -257 -145 -354 -68 -74 -133
-117 -225 -148 -147 -49 -140 -31 -140 -387 l0 -285 -152 -4 c-142 -3 -157 -6
-215 -32 -76 -35 -144 -103 -181 -184 -25 -54 -27 -66 -30 -241 -4 -207 3
-249 47 -280 29 -21 34 -21 1419 -21 1386 0 1389 0 1415 21 42 32 49 77 45
280 -3 177 -4 186 -31 244 -36 78 -104 146 -181 182 -57 26 -71 28 -213 31
l-153 4 0 293 c0 348 7 328 -129 375 -102 36 -163 74 -228 143 -91 96 -139
206 -150 339 l-6 76 64 33 c120 60 214 132 339 258 152 152 255 301 367 528
62 125 82 157 107 170 66 34 235 156 319 230 327 290 569 733 622 1140 20 150
-70 310 -213 380 -57 28 -59 28 -283 31 l-227 4 -4 91 c-5 106 -25 154 -84
207 -73 64 18 60 -1386 60 -1063 -1 -1288 -3 -1314 -14z m2533 -678 c-5 -489
-11 -564 -67 -838 -152 -741 -532 -1287 -980 -1407 -87 -23 -253 -23 -340 0
-448 120 -828 667 -980 1407 -56 274 -62 349 -67 838 l-5 452 1222 0 1222 0
-5 -452z m-2684 -165 c8 -337 36 -575 96 -828 11 -44 17 -82 15 -84 -2 -3 -60
51 -127 120 -233 235 -381 508 -452 832 -21 93 -15 134 24 171 40 39 71 44
267 45 l171 1 6 -257z m3311 248 c49 -12 94 -55 102 -97 13 -68 -57 -313 -137
-484 -79 -166 -185 -317 -326 -459 -67 -69 -125 -123 -127 -120 -2 2 4 40 15
84 59 245 88 497 96 828 l6 257 166 0 c91 0 183 -5 205 -9z m-1710 -2614 c3
-12 6 -34 6 -48 0 -90 76 -281 149 -376 l41 -53 -320 0 c-176 0 -320 2 -320 5
0 3 16 26 36 52 75 99 124 219 144 362 l12 79 123 0 c118 0 123 0 129 -21z
m516 -927 l0 -210 -645 0 -645 0 0 210 0 210 645 0 645 0 0 -210z m532 -489
c33 -29 33 -30 36 -135 l4 -106 -1216 0 -1216 0 0 90 c0 62 5 100 15 120 32
63 -39 59 1207 60 l1138 0 32 -29z"/>
<path d="M2493 4410 c-27 -16 -48 -52 -117 -193 -80 -168 -84 -174 -117 -180
-19 -3 -101 -15 -184 -27 -82 -12 -164 -28 -182 -37 -42 -21 -67 -73 -60 -126
5 -36 21 -56 148 -183 l142 -142 -33 -186 c-17 -103 -29 -198 -26 -212 4 -13
19 -39 35 -57 26 -29 35 -32 83 -31 47 0 71 10 216 87 l163 87 162 -87 c144
-77 168 -87 215 -87 48 -1 57 2 83 31 16 18 31 44 35 57 3 14 -9 109 -26 212
l-33 186 142 142 c127 127 143 147 148 183 7 53 -18 105 -60 127 -23 11 -347
66 -393 66 -3 0 -43 79 -90 175 -68 143 -90 179 -117 195 -41 25 -93 25 -134
0z m114 -479 c24 -51 52 -95 67 -104 14 -9 58 -21 98 -27 134 -20 130 -11 50
-94 -39 -40 -74 -85 -78 -100 -6 -24 7 -135 23 -204 5 -20 -1 -19 -78 23 -113
60 -144 60 -257 -1 -79 -43 -84 -44 -79 -22 16 69 29 180 23 204 -4 15 -39 60
-78 100 -80 83 -84 74 50 94 40 6 84 18 98 26 13 9 43 55 67 105 23 48 44 88
47 88 3 0 24 -39 47 -88z"/>
</g>
</svg>
